<?xml version="1.0" standalone="no"?><!DOCTYPE svg PUBLIC "-//W3C//DTD SVG 1.1//EN" "http://www.w3.org/Graphics/SVG/1.1/DTD/svg11.dtd"><svg t="1747567902273" class="icon" viewBox="0 0 1024 1024" version="1.1" xmlns="http://www.w3.org/2000/svg" p-id="5287" xmlns:xlink="http://www.w3.org/1999/xlink" width="200" height="200"><path d="M853.333333 213.333333a42.666667 42.666667 0 0 1 42.666667 42.666667v512a42.666667 42.666667 0 0 1-42.666667 42.666667H213.333333a42.666667 42.666667 0 0 1-42.666666-42.666667V256a42.666667 42.666667 0 0 1 42.666666-42.666667h640zM362.666667 682.666667h-85.333334a21.333333 21.333333 0 0 0 0 42.666666h85.333334a21.333333 21.333333 0 0 0 0-42.666666z m170.666666 0h-85.333333a21.333333 21.333333 0 0 0 0 42.666666h85.333333a21.333333 21.333333 0 0 0 0-42.666666z m170.666667 0h-85.333333a21.333333 21.333333 0 0 0 0 42.666666h85.333333a21.333333 21.333333 0 0 0 0-42.666666z m85.333333 0a21.333333 21.333333 0 1 0 0 42.666666 21.333333 21.333333 0 0 0 0-42.666666z m0-384h-512a21.333333 21.333333 0 0 0-21.333333 21.333333v298.666667a21.333333 21.333333 0 0 0 21.333333 21.333333h512a21.333333 21.333333 0 0 0 21.333334-21.333333v-298.666667a21.333333 21.333333 0 0 0-21.333334-21.333333zM392.533333 390.826667c17.706667 0 32.426667 4.48 43.946667 13.866666 11.093333 8.96 17.92 21.333333 20.266667 36.693334h-22.613334c-2.56-10.24-7.466667-17.92-14.72-22.826667-7.253333-4.906667-16.213333-7.253333-27.306666-7.253333-16.426667 0-28.8 5.546667-37.12 16.853333-7.893333 10.24-11.733333 24.32-11.733334 42.026667 0 18.346667 3.84 32.426667 11.52 42.453333 8.106667 10.666667 20.693333 16 37.76 16 11.093333 0 20.48-2.773333 27.733334-8.32 7.68-5.973333 13.013333-14.933333 16-26.88h22.613333c-3.413333 17.706667-11.306667 31.573333-23.893333 41.6-11.733333 9.386667-25.813333 14.08-42.24 14.08-24.96 0-43.733333-8.106667-56.32-23.893333-11.093333-13.653333-16.426667-32-16.426667-55.04 0-22.613333 5.546667-40.96 17.066667-55.253334 12.8-16.213333 31.146667-24.106667 55.466666-24.106666z m157.226667 2.986666c15.36 0 27.733333 3.413333 36.693333 10.453334 9.386667 7.68 14.08 18.56 14.08 33.066666 0 8.106667-2.133333 15.146667-6.4 21.333334a34.090667 34.090667 0 0 1-19.84 13.44v0.426666c13.653333 2.986667 21.12 11.946667 22.826667 26.88l2.56 24.32c0.853333 9.386667 3.84 16.853333 8.96 22.4h-25.173333c-3.626667-4.693333-5.76-11.52-6.613334-20.053333l-1.92-18.986667c-0.853333-8.533333-3.626667-14.506667-8.106666-18.346666-4.693333-3.84-11.306667-5.546667-20.053334-5.546667h-41.173333V546.133333h-23.253333V393.813333z m193.28 0v19.84h-50.773333V546.133333h-23.04V413.653333H618.24V393.813333h124.8z m-196.48 19.84h-40.96v49.706667h41.173333c10.24 0 17.92-2.346667 23.04-6.613333 4.906667-4.266667 7.466667-10.453333 7.466667-18.56 0-8.533333-2.56-14.72-7.253333-18.56-5.12-4.053333-12.8-5.973333-23.466667-5.973334z" fill="#000000" p-id="5288"></path></svg>