<?xml version="1.0" standalone="no"?><!DOCTYPE svg PUBLIC "-//W3C//DTD SVG 1.1//EN" "http://www.w3.org/Graphics/SVG/1.1/DTD/svg11.dtd"><svg t="1744809613825" class="icon" viewBox="0 0 1024 1024" version="1.1" xmlns="http://www.w3.org/2000/svg" p-id="1457" xmlns:xlink="http://www.w3.org/1999/xlink" width="200" height="200"><path d="M601.216 85.333333a42.666667 42.666667 0 0 1 30.485333 12.821334l209.450667 213.973333a42.666667 42.666667 0 0 1 12.181333 29.866667V853.333333a85.333333 85.333333 0 0 1-85.333333 85.333334H256a85.333333 85.333333 0 0 1-85.333333-85.333334V170.666667a85.333333 85.333333 0 0 1 85.333333-85.333334h345.216z m49.578667 421.034667c-4.992-29.674667-45.994667-36.693333-60.074667-8.789333l-78.805333 156.224-77.290667-156.010667c-14.378667-29.013333-57.813333-20.778667-60.565333 11.477333l-21.952 256a32 32 0 0 0 29.162666 34.624l3.072 0.106667a32 32 0 0 0 31.552-29.269333l12.181334-142.016 54.890666 110.826666 1.514667 2.730667c12.864 20.864 44.330667 20.074667 55.744-2.517333l56.341333-111.722667 11.52 142.549333a32 32 0 0 0 63.808-5.162666l-20.714666-256z m-21.184-318.826667v143.872h140.8l-140.8-143.872z" fill="#323847" p-id="1458"></path></svg>